<?xml version="1.0" standalone="no"?>
<!DOCTYPE svg PUBLIC "-//W3C//DTD SVG 20010904//EN"
 "http://www.w3.org/TR/2001/REC-SVG-20010904/DTD/svg10.dtd">
<svg version="1.0" xmlns="http://www.w3.org/2000/svg"
 width="592.000000pt" height="644.000000pt" viewBox="0 0 592.000000 644.000000"
 preserveAspectRatio="xMidYMid meet">

<g transform="translate(0.000000,644.000000) scale(0.100000,-0.100000)"
fill="#000000" stroke="none">
<path d="M2720 5981 c0 -5 -30 -12 -67 -14 -104 -8 -284 -44 -368 -73 -22 -7
-48 -14 -57 -14 -10 0 -18 -4 -18 -10 0 -5 -13 -10 -30 -10 -16 0 -30 -4 -30
-10 0 -5 -11 -10 -25 -10 -14 0 -25 -4 -25 -10 0 -5 -9 -10 -20 -10 -11 0 -20
-4 -20 -10 0 -5 -6 -10 -14 -10 -16 0 -110 -51 -114 -62 -2 -4 -9 -8 -15 -8
-26 -1 -50 -31 -59 -72 -18 -86 -29 -248 -35 -480 -2 -131 -3 -239 -1 -240 1
-2 314 -5 693 -8 l690 -5 3 -34 c2 -19 1 -44 -2 -57 l-6 -24 -1040 0 c-682 0
-1041 -3 -1045 -10 -3 -5 -21 -10 -40 -10 -32 0 -48 -5 -122 -36 -17 -8 -36
-14 -42 -14 -6 0 -11 -3 -11 -8 0 -4 -14 -13 -31 -21 -34 -15 -199 -171 -199
-188 0 -5 -11 -23 -25 -39 -14 -16 -25 -35 -25 -41 0 -7 -3 -13 -8 -13 -4 0
-13 -15 -21 -32 -7 -18 -19 -46 -26 -63 -28 -63 -53 -148 -77 -260 -14 -65
-14 -503 0 -575 19 -96 51 -220 62 -235 4 -5 13 -31 21 -57 7 -27 17 -48 21
-48 4 0 8 -6 8 -14 0 -16 72 -145 107 -192 13 -17 23 -34 23 -38 0 -3 22 -30
50 -59 27 -28 50 -55 50 -59 0 -5 4 -8 10 -8 5 0 29 -18 52 -40 22 -23 54 -48
70 -58 15 -9 28 -20 28 -24 0 -4 9 -8 20 -8 11 0 20 -4 20 -9 0 -18 195 -101
237 -101 12 0 25 -4 28 -10 3 -5 26 -10 51 -10 24 0 44 -4 44 -10 0 -6 36 -10
89 -10 l89 0 6 53 c4 28 9 82 12 120 3 37 10 67 15 67 5 0 9 29 9 65 0 37 4
65 10 65 6 0 10 19 10 42 0 23 4 55 9 72 6 17 17 67 26 111 28 132 85 285 107
285 4 0 8 9 8 20 0 11 3 20 8 20 4 0 20 20 36 44 16 24 42 51 57 60 16 9 34
22 41 30 22 21 104 66 121 66 10 0 17 5 17 10 0 6 9 10 19 10 11 0 23 5 26 10
3 6 21 10 39 10 17 0 36 4 41 9 20 18 109 24 469 28 244 2 373 0 380 -7 13
-13 363 -14 371 0 3 6 36 10 72 10 36 0 84 5 107 11 133 34 162 43 171 51 5 4
17 8 27 8 10 0 18 5 18 10 0 6 7 10 15 10 30 0 94 80 145 180 18 36 36 73 41
82 5 10 9 27 9 38 0 11 5 20 10 20 6 0 10 8 10 18 0 9 11 62 24 117 38 158 46
203 46 261 0 30 5 54 10 54 13 0 14 642 1 656 -5 5 -12 36 -14 69 -10 109 -45
251 -77 307 -6 10 -10 25 -10 33 0 8 -4 15 -8 15 -5 0 -15 12 -23 28 -16 30
-108 122 -124 122 -6 0 -17 9 -25 20 -8 11 -22 20 -32 20 -10 0 -18 3 -18 8 0
10 -66 38 -148 63 -37 11 -81 24 -98 30 -17 5 -42 9 -57 9 -14 0 -29 5 -32 10
-3 6 -31 10 -61 10 -30 0 -54 5 -54 10 0 6 -108 10 -305 10 -178 0 -305 -4
-305 -9z m-270 -308 c47 -21 120 -81 120 -99 0 -8 4 -14 9 -14 19 0 41 -82 41
-153 0 -79 -28 -156 -73 -201 -37 -37 -115 -76 -152 -76 -19 0 -35 -4 -35 -10
0 -5 -9 -10 -19 -10 -11 0 -23 5 -26 10 -3 6 -24 10 -46 10 -21 0 -39 5 -39
10 0 6 -9 10 -20 10 -29 0 -130 104 -130 135 0 8 -4 15 -10 15 -5 0 -10 13
-10 29 0 17 -4 33 -10 36 -5 3 -10 24 -10 46 0 21 5 39 10 39 6 0 10 16 10 35
0 19 5 35 10 35 6 0 10 7 10 15 0 16 3 21 49 73 70 78 221 109 321 65z"/>
<path d="M4322 4737 c-6 -7 -13 -53 -16 -102 -9 -153 -48 -419 -81 -538 -23
-88 -49 -162 -57 -165 -4 -2 -8 -12 -8 -23 0 -10 -4 -19 -10 -19 -5 0 -10 -7
-10 -15 0 -8 -4 -15 -10 -15 -5 0 -10 -6 -10 -12 0 -12 -51 -79 -75 -100 -50
-42 -74 -60 -97 -71 -16 -6 -28 -15 -28 -19 0 -5 -9 -8 -20 -8 -11 0 -20 -4
-20 -10 0 -5 -9 -10 -20 -10 -11 0 -20 -4 -20 -10 0 -5 -10 -10 -23 -10 -13 0
-27 -4 -33 -9 -18 -17 -172 -40 -308 -47 -77 -4 -300 -1 -498 6 -363 14 -541
8 -673 -20 -27 -6 -65 -14 -82 -17 -18 -3 -33 -9 -33 -14 0 -5 -11 -9 -25 -9
-14 0 -25 -4 -25 -10 0 -5 -7 -10 -15 -10 -19 0 -35 -12 -89 -67 -56 -57 -66
-70 -66 -88 0 -8 -4 -15 -10 -15 -5 0 -10 -7 -10 -15 0 -8 -4 -15 -10 -15 -5
0 -10 -9 -10 -20 0 -11 -4 -20 -10 -20 -5 0 -10 -10 -10 -23 0 -13 -4 -27 -9
-32 -4 -6 -20 -57 -35 -115 -15 -58 -31 -119 -36 -136 -6 -17 -10 -51 -10 -77
0 -26 -4 -47 -10 -47 -6 0 -10 -31 -10 -74 0 -41 -4 -78 -10 -81 -14 -8 -14
-575 0 -575 6 0 10 -32 10 -75 0 -43 4 -75 10 -75 6 0 10 -17 10 -37 0 -20 5
-52 10 -70 6 -18 15 -50 21 -70 17 -61 43 -123 52 -123 4 0 7 -8 7 -18 0 -10
9 -24 20 -32 11 -8 20 -18 20 -23 0 -10 67 -77 77 -77 5 0 15 -9 23 -20 8 -11
22 -20 32 -20 10 0 18 -4 18 -9 0 -10 114 -61 136 -61 8 0 14 -4 14 -10 0 -5
11 -10 24 -10 14 0 28 -4 31 -10 3 -5 22 -10 41 -10 19 0 34 -4 34 -10 0 -5
18 -10 39 -10 22 0 42 -4 45 -9 16 -26 599 -36 761 -13 50 7 116 16 148 18 31
3 57 10 57 15 0 5 18 9 39 9 22 0 43 5 46 10 3 6 19 10 35 10 16 0 32 5 35 10
3 6 19 10 34 10 15 0 31 4 37 8 5 4 36 16 69 27 33 10 64 22 69 27 6 4 18 8
28 8 10 0 18 5 18 10 0 6 9 10 20 10 11 0 20 5 20 10 0 6 9 10 20 10 11 0 20
5 20 10 0 6 7 10 15 10 8 0 15 5 15 10 0 6 7 10 16 10 10 0 32 15 50 34 28 29
33 42 38 102 4 38 11 96 16 130 6 33 10 172 10 307 l0 247 -690 0 -690 0 0 55
0 55 1068 4 c587 2 1088 7 1115 11 26 4 47 11 47 16 0 5 11 9 25 9 14 0 25 5
25 10 0 6 9 10 20 10 11 0 20 5 20 10 0 6 9 10 20 10 11 0 20 5 20 10 0 6 6
10 14 10 19 0 167 145 191 188 11 17 23 32 27 32 4 0 8 9 8 20 0 11 5 20 10
20 6 0 10 7 10 15 0 8 5 15 10 15 6 0 10 9 10 20 0 11 5 20 10 20 6 0 10 6 10
14 0 7 11 39 25 70 14 31 25 68 25 81 0 14 5 25 10 25 6 0 10 15 10 34 0 19 5
38 10 41 6 3 10 26 10 51 0 24 5 44 10 44 6 0 10 86 10 239 0 149 -4 242 -10
246 -5 3 -10 26 -10 50 0 24 -4 47 -10 50 -5 3 -10 19 -10 36 0 16 -4 37 -9
47 -5 9 -16 42 -26 72 -29 94 -40 120 -47 120 -5 0 -8 11 -8 25 0 14 -4 25
-10 25 -5 0 -10 9 -10 20 0 11 -4 20 -9 20 -5 0 -14 14 -21 30 -7 17 -16 30
-21 30 -5 0 -9 5 -9 11 0 21 -75 114 -162 202 -48 48 -90 87 -92 87 -3 0 -30
16 -60 35 -30 19 -60 35 -66 35 -5 0 -10 5 -10 10 0 6 -9 10 -20 10 -11 0 -20
5 -20 10 0 6 -9 10 -20 10 -11 0 -20 5 -20 10 0 6 -11 10 -25 10 -14 0 -25 5
-25 10 0 6 -11 10 -25 10 -14 0 -33 4 -43 9 -60 33 -328 54 -350 28z m-681
-2569 c64 -33 108 -76 137 -133 32 -63 37 -196 9 -238 -9 -15 -17 -31 -17 -38
0 -15 -87 -96 -123 -114 -17 -8 -40 -15 -53 -15 -13 0 -26 -4 -29 -10 -3 -5
-24 -10 -45 -10 -21 0 -42 5 -45 10 -3 6 -19 10 -36 10 -16 0 -29 5 -29 10 0
6 -8 10 -19 10 -29 0 -131 105 -131 135 0 8 -4 15 -10 15 -5 0 -10 20 -10 44
0 26 -5 46 -12 49 -10 3 -10 9 0 26 6 11 12 37 12 56 0 19 4 35 9 35 5 0 12
12 15 26 10 38 97 123 134 130 18 4 32 10 32 15 0 5 38 9 84 9 68 0 93 -4 127
-22z"/>
<path d="M3493 800 c0 -25 2 -35 4 -22 2 12 2 32 0 45 -2 12 -4 2 -4 -23z"/>
<path d="M3431 674 c0 -11 3 -14 6 -6 3 7 2 16 -1 19 -3 4 -6 -2 -5 -13z"/>
<path d="M2053 430 c0 -30 2 -43 4 -27 2 15 2 39 0 55 -2 15 -4 2 -4 -28z"/>
</g>
</svg>
