<?xml version="1.0" standalone="no"?>
<!DOCTYPE svg PUBLIC "-//W3C//DTD SVG 20010904//EN"
 "http://www.w3.org/TR/2001/REC-SVG-20010904/DTD/svg10.dtd">
<svg version="1.0" xmlns="http://www.w3.org/2000/svg"
 width="512.000000pt" height="512.000000pt" viewBox="0 0 512.000000 512.000000"
 preserveAspectRatio="xMidYMid meet">

<g transform="translate(0.000000,512.000000) scale(0.100000,-0.100000)"
fill="#000000" stroke="none">
<path d="M2483 5016 c-528 -298 -2054 -1184 -2070 -1202 l-23 -25 0 -1229 0
-1229 23 -25 c12 -14 494 -297 1071 -630 762 -441 1056 -606 1079 -606 22 0
316 165 1081 607 578 335 1059 616 1068 625 17 17 18 90 18 1258 0 1170 -1
1241 -18 1258 -28 28 -2115 1226 -2142 1229 -15 2 -50 -10 -87 -31z m-35 -742
l-3 -465 -456 -265 -456 -264 -399 229 c-219 126 -399 233 -398 237 1 9 1692
993 1707 994 4 0 6 -209 5 -466z m1088 -25 c467 -270 853 -495 857 -498 4 -4
-174 -112 -396 -239 l-404 -232 -446 259 c-246 142 -453 264 -462 271 -13 11
-15 73 -15 471 0 253 4 459 8 459 5 0 391 -221 858 -491z m-560 -867 c294
-170 390 -230 381 -238 -14 -13 -785 -454 -794 -454 -14 0 -803 456 -800 463
4 15 792 466 806 461 8 -3 191 -107 407 -232z m-1956 -60 l395 -229 3 -534 2
-535 -396 -229 c-218 -127 -401 -231 -405 -233 -5 -2 -9 440 -9 992 0 548 4
996 8 996 4 0 185 -103 402 -228z m3500 -762 c0 -786 -3 -990 -12 -989 -7 0
-191 102 -408 227 l-395 227 -3 531 -2 531 397 231 c219 127 404 231 411 231
9 1 12 -203 12 -989z m-1030 -64 l0 -464 -402 -235 c-222 -129 -406 -233 -410
-230 -5 2 -8 211 -8 463 l0 460 23 14 c50 33 783 456 790 456 4 0 7 -209 7
-464z m-1439 226 l394 -228 3 -468 c1 -263 -2 -466 -7 -464 -4 1 -187 106
-405 233 l-396 229 0 463 c0 255 4 463 8 463 4 0 186 -103 403 -228z m-53
-1158 l451 -259 1 -468 c0 -442 -1 -467 -17 -458 -95 50 -1699 983 -1700 989
-4 11 780 462 798 458 9 -2 219 -120 467 -262z m2002 38 c217 -126 395 -233
395 -238 0 -13 -1709 -993 -1718 -985 -4 4 -6 213 -5 465 l3 458 455 263 c250
145 460 264 465 264 6 1 188 -102 405 -227z"/>
</g>
</svg>
